<svg viewBox="0 0 24 24">
    <path fill="#000" fill-rule="evenodd" d="M13.5 0c.291 0 .527.236.527.527v12.446h1.758v-1.16c0-.292.236-.528.528-.528.29 0 .527.236.527.528v1.16h.633c.29 0 .527.236.527.527v3.973c0 .29-.236.527-.527.527H.527C.237 18 0 17.764 0 17.473V13.5c0-.291.236-.527.527-.527h.633v-1.16c0-.292.236-.528.528-.528.29 0 .527.236.527.528v1.16h1.758V.527c0-.29.236-.527.527-.527zM3.973 14.027H1.055v2.918h2.918v-2.918zm6.468 1.688H7.56v1.23h2.882v-1.23zm2.532-14.66H5.027v15.89h1.477v-1.757c0-.292.236-.528.527-.528h3.938c.291 0 .527.236.527.528v1.757h1.477V1.055zm3.972 12.972h-2.918v2.918h2.918v-2.918zm-9.65-2.456c.232 0 .42.288.42.643 0 .355-.188.643-.42.643h-.447c-.232 0-.42-.288-.42-.643 0-.355.188-.643.42-.643zm2.571 0c.232 0 .42.288.42.643 0 .355-.188.643-.42.643H9.42c-.231 0-.419-.288-.419-.643 0-.355.188-.643.42-.643zM7.295 9c.232 0 .42.288.42.643 0 .355-.188.643-.42.643h-.447c-.232 0-.42-.288-.42-.643 0-.355.188-.643.42-.643zm2.571 0c.232 0 .42.288.42.643 0 .355-.188.643-.42.643H9.42c-.231 0-.419-.288-.419-.643C9 9.288 9.188 9 9.42 9zM7.295 6.429c.232 0 .42.287.42.642 0 .355-.188.643-.42.643h-.447c-.232 0-.42-.288-.42-.643 0-.355.188-.642.42-.642zm2.571 0c.232 0 .42.287.42.642 0 .355-.188.643-.42.643H9.42c-.231 0-.419-.288-.419-.643 0-.355.188-.642.42-.642zM7.295 3.857c.232 0 .42.288.42.643 0 .355-.188.643-.42.643h-.447c-.232 0-.42-.288-.42-.643 0-.355.188-.643.42-.643zm2.571 0c.232 0 .42.288.42.643 0 .355-.188.643-.42.643H9.42C9.188 5.143 9 4.855 9 4.5c0-.355.188-.643.42-.643z"/>
</svg>
