<svg viewBox="0 0 48 48">
<g id="layer101" fill="#003f82" stroke="none">
 <path d="M4310 8970 c-524 -41 -1078 -241 -1520 -548 -101 -71 -112 -78 -139 -103 -9 -8 -26 -22 -38 -30 -11 -8 -49 -39 -84 -69 -357 -307 -632 -676 -827 -1110 -167 -371 -254 -759 -269 -1195 -18 -561 120 -1131 392 -1611 30 -53 55 -99 55 -101 0 -5 72 -113 135 -204 89 -126 198 -254 344 -400 86 -85 174 -168 196 -185 22 -16 46 -35 54 -42 60 -57 307 -226 434 -296 768 -425 1679 -513 2517 -242 73 23 164 57 205 76 11 5 58 25 105 45 173 74 355 180 563 327 289 205 568 502 801 853 69 103 218 392 263 510 47 123 81 216 93 260 74 265 102 414 125 661 19 204 19 314 1 519 -22 238 -45 372 -105 592 -252 927 -948 1707 -1851 2073 -30 13 -64 26 -75 31 -176 71 -449 138 -710 174 -131 18 -518 27 -665 15z"/>
 <path d="M898 6385 c-113 -256 -171 -417 -259 -725 -5 -19 -23 -98 -39 -175 -146 -700 -107 -1419 113 -2110 225 -707 646 -1356 1197 -1849 190 -170 317 -268 500 -388 236 -154 457 -271 715 -379 555 -231 1211 -344 1810 -310 314 18 577 57 825 123 63 16 129 34 145 38 93 23 365 121 495 177 234 102 576 293 740 414 238 175 271 201 374 294 198 177 399 393 554 595 45 58 85 110 89 115 13 15 166 247 179 270 6 11 34 61 63 110 28 50 84 155 122 234 221 454 342 881 404 1428 7 61 -8 71 -30 20 -56 -134 -277 -475 -439 -677 -148 -186 -442 -488 -586 -605 -77 -62 -225 -175 -269 -205 -29 -19 -64 -44 -79 -56 -44 -33 -248 -157 -361 -218 -134 -74 -272 -139 -396 -187 -55 -22 -109 -44 -120 -49 -105 -50 -501 -160 -714 -199 -264 -49 -442 -64 -756 -65 -400 -1 -669 29 -1010 112 -329 80 -735 235 -973 370 -41 23 -75 42 -78 42 -16 0 -342 207 -415 265 -14 11 -36 27 -48 35 -39 26 -235 183 -287 229 -58 53 -338 334 -374 376 -425 498 -694 993 -884 1625 -120 398 -189 1034 -146 1352 6 48 10 95 8 105 -2 10 -33 -49 -70 -132z"/>
 </g>
</svg>